<svg height='100px' width='100px'  fill="#000000" xmlns="http://www.w3.org/2000/svg" xmlns:xlink="http://www.w3.org/1999/xlink" version="1.1" x="0px" y="0px" viewBox="0 0 1024 1024" style="enable-background:new 0 0 1024 1024;" xml:space="preserve"><g><g><g><path d="M904.2,346.6c0,20.2,0,40.4,0,60.6c0,47.1,0,94.2,0,141.2c0,54,0,108.1,0,162.1c0,41.2,0,82.4,0,123.6     c0,9.4,0,18.9,0,28.3c0,0.8,0,1.6,0,2.4c0,0.1,0,0.3,0,0.4c0,1,0,1.9-0.1,2.8c-0.1,1.2-0.2,2.3-0.2,3.5c-0.2,2,0,0.9,0.5-3.2     c-0.1,0.9-0.3,1.8-0.5,2.7c-0.4,2.2-1,4.4-1.7,6.5c-0.3,0.9-0.5,1.7-0.8,2.5c-0.9,2.6-2.9,4,0.5-1c-1.2,1.8-2,4-3,5.9     c-0.4,0.8-0.9,1.5-1.4,2.2c-0.5,0.8-4,5.4-1.1,1.8c2.9-3.6-1.9,2.1-2.7,2.9c-1.5,1.6-3.2,3-4.8,4.5c-1.8,1.6-3.7,1.6,1.5-1.1     c-0.9,0.5-1.8,1.3-2.7,1.9c-2,1.3-4.1,2.5-6.3,3.6c-2.1,1-5.4,1.4,1.1-0.3c-0.8,0.2-1.7,0.7-2.5,0.9c-2.1,0.8-4.3,1.4-6.4,1.9     c-1.3,0.3-2.7,0.5-4,0.8c-2.2,0.5-2.9-0.7,2.6-0.3c-2.2-0.1-4.7,0.4-7,0.4c-0.4,0-0.8,0-1.2,0c-2.8,0-5.6,0-8.4,0     c-12.7,0-25.5,0-38.2,0c-44.9,0-89.8,0-134.7,0c-54.3,0-108.5,0-162.8,0c-43.8,0-87.7,0-131.5,0c-11.6,0-23.2,0-34.8,0     c-2.3,0-4.5,0-6.8,0c-0.1,0-0.2,0-0.4,0c-1.4,0-2.8,0-4.2-0.1c-0.9-0.1-1.9-0.2-2.8-0.2c7.7,0.2,2.8,0.4,0.6-0.1     c-2.2-0.5-4.4-1-6.5-1.7c-1.1-0.3-2.1-0.7-3.2-1.1c-3.7-1.3,2,0.8,2.3,1c-1.6-1.3-4-2-5.9-3c-1.1-0.7-2.3-1.4-3.3-2.1     c-1.9-1.3-3.8-3.8,0.8,0.8c-3.1-3.1-6.4-5.9-9.3-9.2c-3.3-3.7,3.4,5,0.7,0.9c-0.5-0.7-1-1.4-1.5-2.2c-1.4-2.2-2.6-4.6-3.9-6.9     c-1.8-3.4,0.8,2,0.9,2.3c-0.3-1.3-1-2.5-1.4-3.8c-0.7-2.1-1.3-4.3-1.8-6.5c-0.2-0.9-0.3-1.8-0.5-2.7c-1.1-5,0.5,6.4,0.2,1.2     c-0.1-1.9-0.2-3.7-0.2-5.6c0-1.5,0-3,0-4.6c0-10.6,0-21.2,0-31.8c0-42.2,0-84.5,0-126.7c0-54.3,0-108.7,0-163     c0-46.1,0-92.1,0-138.2c0-13.7,0-27.5,0-41.2c0-3.5,0-7.1,0-10.6c0-0.7,0-1.5,0-2.2c0-0.1,0-0.2,0-0.4c0-1.4,0-2.8,0.1-4.2     c0.1-2.1,1.3-6.3-0.3,1.2c0.3-1.3,0.5-2.7,0.7-4c0.5-2.2,1.1-4.4,1.8-6.5c0.4-1.1,0.8-2.1,1.1-3.1c1.1-3.1-2.9,5.9-0.7,1.7     c1-2,2-3.9,3.2-5.8c0.6-0.9,1.2-1.8,1.8-2.8c3-4.9-3.4,3.8-0.4,0.4c2.9-3.3,6.4-6,9.3-9.2c-0.2,0.2-5.2,3.6-1.9,1.6     c1.1-0.7,2.2-1.5,3.3-2.2c2.1-1.3,4.3-2.2,6.4-3.4c2.8-1.7-6.2,2.3-1.7,0.7c1.1-0.4,2.1-0.8,3.2-1.1c2.1-0.7,4.3-1.3,6.5-1.7     c1.1-0.2,2.3-0.3,3.4-0.6c-5.9,1.7-4.6,0.5-2.5,0.4c1.9-0.1,3.7-0.2,5.6-0.2c0.4,0,0.9,0,1.3,0c8.3,0,16.6,0,24.9,0     c39.5,0,79,0,118.4,0c54,0,107.9,0,161.9,0c48.1,0,96.2,0,144.3,0c22.5,0,45-0.2,67.5,0c0.1,0,0.2,0,0.3,0c1.9,0,3.7,0.2,5.6,0.2     c4.1,0.2-2.2-0.3-2.5-0.4c1.2,0.4,2.7,0.5,4,0.7c2.2,0.5,4.4,1.1,6.5,1.8c0.8,0.3,1.7,0.6,2.5,0.9c4.7,1.6-5.5-2.8-1.1-0.4     c1.9,1,3.9,2,5.8,3.2c0.7,0.5,1.5,0.9,2.2,1.4c1.9,1.3,3.9,4-0.8-0.8c3.1,3.1,6.4,5.8,9.3,9.2c1.4,1.6,0.9,2.8-1.5-2     c0.6,1.1,1.5,2.2,2.2,3.2c1.2,1.8,2.3,3.8,3.3,5.7c0.4,0.7,0.7,1.7,1.1,2.4c-3.5-5-1.4-3.6-0.5-1c0.7,1.9,1.3,3.8,1.8,5.8     c0.3,1.2,1.7,8.8,0.9,4c-0.7-4.7-0.1-0.1,0,0.8C904.2,343.8,904.2,345.2,904.2,346.6c0.1,13.1,11.4,25.6,25,25     c13.4-0.6,25.2-11,25-25c-0.3-24-9.9-47.7-27.5-64.3c-16.7-15.7-38.6-24.5-61.5-24.7c-6-0.1-12,0-17.9,0c-37.5,0-74.9,0-112.4,0     c-54.1,0-108.2,0-162.4,0c-50,0-100,0-149.9,0c-25,0-50-0.1-75,0c-38.9,0.1-72.4,24.4-85.4,60.8c-4.5,12.6-4.6,25.8-4.6,39     c0,34.1,0,68.2,0,102.3c0,53.2,0,106.5,0,159.7c0,51.6,0,103.1,0,154.7c0,29.1,0,58.2,0,87.2c0,26.3,9.1,52.4,29.4,70     c16.8,14.5,37.3,22.7,59.6,22.9c1.8,0,3.5,0,5.3,0c30.3,0,60.7,0,91,0c51.8,0,103.7,0,155.5,0c52.9,0,105.8,0,158.7,0     c33,0,66.1,0,99.1,0c2.7,0,5.4,0,8.1,0c14.5,0,28.1-3.4,41.1-9.7c30.7-14.7,48.7-47.7,48.7-81c0-26.3,0-52.5,0-78.8     c0-50.5,0-101,0-151.4c0-53.9,0-107.8,0-161.7c0-36.5,0-73,0-109.5c0-5.2,0-10.4,0-15.7c0-13.1-11.5-25.6-25-25     C915.7,322.2,904.2,332.6,904.2,346.6z"></path></g></g><g><g><path d="M158.7,716.4c-1.4,0-2.8,0-4.2-0.1c-0.9-0.1-5.5-0.7-0.8,0c4.7,0.7,0.1,0-0.7-0.2c-1.3-0.3-2.7-0.6-4-0.9     c-2.2-0.6-4.3-1.3-6.4-2c-4.5-1.6,4.5,2.4,1.7,0.7c-1.3-0.8-2.8-1.4-4.1-2.1c-1.9-1.1-3.7-2.3-5.6-3.5c-4.1-2.7,4.6,4,0.9,0.7     c-0.7-0.6-1.3-1.1-2-1.7c-1.6-1.5-3.2-3-4.6-4.6c-0.9-1-1.6-2.1-2.5-3c5.1,5,1.7,2.2,0.4,0.3c-1.3-2-2.5-4.1-3.6-6.3     c-0.4-0.7-0.7-1.7-1.1-2.4c3.5,5,1.4,3.6,0.5,1c-0.8-2.1-1.4-4.3-1.9-6.4c-0.3-1.1-0.5-2.2-0.7-3.3c-1.1-6,0.3,5.4,0.1,0.5     c-0.1-2.1-0.2-4.2-0.2-6.4c0-8.2,0-16.3,0-24.5c0-41.3,0-82.6,0-123.9c0-56,0-112.1,0-168.1c0-48.6,0-97.1,0-145.7     c0-14.4,0-28.8,0-43.2c0-3.5,0-6.9,0-10.4c0-0.6,0-1.3,0-1.9c0-1.2,0-2.4,0.1-3.7c0.1-1.1,0.3-2.4,0.3-3.5     c0.4,6.4-0.6,3.9-0.1,1.2c0.5-2.6,1.2-5.3,2.1-7.8c0.3-0.8,0.6-1.7,0.9-2.5c1.6-4.7-2.8,5.5-0.4,1.1c1-2,2-3.9,3.2-5.8     c0.7-1.1,1.5-2.2,2.2-3.3c1-1.6,2.7-2.3-1.6,1.9c1.8-1.8,3.4-4,5.3-5.8c0.9-0.9,1.9-1.8,2.9-2.7c0.6-0.5,4.1-3.4,0.5-0.5     c-3.5,2.8,0,0.1,0.7-0.4c1.1-0.7,2.2-1.4,3.3-2.1c1.9-1.1,4.1-1.8,5.9-3c-4.4,3-4.4,1.7-2.3,1c1.7-0.6,3.4-1.2,5.1-1.7     c2.2-0.6,4.4-1.1,6.6-1.5c5-1.1-6.4,0.4-1.2,0.2c0.9,0,1.9-0.1,2.8-0.2c1,0,2-0.1,3-0.1c0.7,0,1.5,0,2.2,0c9.7,0,19.5,0,29.2,0     c43.2,0,86.4,0,129.6,0c56.6,0,113.2,0,169.7,0c46.9,0,93.7,0,140.6,0c12.9,0,25.8,0,38.7,0c2.6,0,5.2,0,7.8,0c0.2,0,0.4,0,0.6,0     c0,0,0.1,0,0.1,0c0.9,0,1.9,0,2.8,0.1c0.9,0,1.9,0.1,2.8,0.2c2.7,0.3,1.8,0.1-2.5-0.4c4.3,1.3,8.7,1.9,13,3.4     c4.5,1.6-4.5-2.4-1.7-0.7c0.9,0.6,2,1,3,1.5c2.3,1.2,4.5,2.7,6.7,4.1c4.1,2.7-4.6-4-0.9-0.7c0.7,0.6,1.3,1.1,2,1.7     c1.8,1.6,3.5,3.3,5.1,5.1c0.7,0.8,1.3,1.8,2.1,2.5c-4.8-4.8-2.1-2.7-0.8-0.8c1.2,1.8,2.4,3.7,3.4,5.6c0.4,0.8,0.8,1.6,1.2,2.4     c2.3,4.4-2-5.8-0.4-1.1c0.7,2.1,1.5,4.2,2,6.4c0.6,2.2,0.8,4.5,1.4,6.7c-1.9-6.6-0.5-3.6-0.3-1.2c0.1,1.4,0.1,2.8,0.1,4.2     c0.1,13.1,11.4,25.6,25,25c13.4-0.6,25.2-11,25-25c-0.3-24.7-10.6-49.7-29.4-66c-16.8-14.5-37.4-22.7-59.7-22.9     c-7-0.1-14.1,0-21.1,0c-41.1,0-82.3,0-123.4,0c-57.2,0-114.5,0-171.7,0c-49.3,0-98.6,0-147.9,0c-14.4,0-28.7,0-43.1,0     c-14.2,0-28.4,0.2-41.9,5.5c-35.5,13.9-58.3,46.8-58.3,85.1c0,9.5,0,18.9,0,28.4c0,44,0,88,0,132.1c0,57.5,0,115.1,0,172.6     c0,47.1,0,94.1,0,141.2c0,12.2,0,24.4,0,36.6c0,2,0,4,0,6c0.2,22.6,8.7,43.9,23.8,60.6c16.4,18.2,40.8,28.2,65.2,28.4     c13.1,0.1,25.6-11.6,25-25C183.1,727.7,172.7,716.5,158.7,716.4L158.7,716.4z"></path></g></g></g></svg>